<svg version="1.0" xmlns="http://www.w3.org/2000/svg" preserveAspectRatio="xMidYMid meet" viewBox="46.2 59 485.52 354.22">
<metadata>
Created by potrace 1.16, written by Peter Selinger 2001-2019
</metadata>
<g transform="translate(0.000000,438.000000) scale(0.100000,-0.100000)" fill="#000000" stroke="none">
<path d="M635 3723 c-10 -38 -23 -86 -30 -108 -7 -22 -20 -69 -30 -105 -9 -36 -21 -76 -25 -90 -4 -14 -20 -70 -35 -125 -15 -55 -33 -119 -40 -142 l-13 -42 81 -74 c45 -41 100 -89 122 -108 37 -31 214 -188 225 -199 3 -3 39 -34 80 -69 41 -35 109 -94 150 -131 201 -179 271 -240 335 -295 39 -33 115 -100 171 -150 55 -49 133 -119 174 -155 41 -36 92 -82 114 -102 37 -33 56 -45 56 -34 0 2 9 39 19 81 21 81 19 96 -17 134 -15 16 -64 80 -191 255 -25 34 -103 140 -174 236 -72 96 -156 211 -189 255 -32 44 -89 121 -126 170 -151 204 -259 352 -282 385 -13 19 -27 37 -30 40 -3 3 -55 73 -115 155 -60 83 -112 152 -115 155 -3 3 -26 33 -49 68 -24 34 -45 62 -46 62 -1 0 -10 -30 -20 -67z"/>
<path d="M3282 3678 c-12 -64 -49 -150 -68 -155 -6 -2 -9 8 -6 26 2 16 -1 32 -7 35 -7 4 -11 -1 -11 -12 0 -10 -12 -29 -26 -43 -24 -22 -36 -24 -162 -30 -113 -5 -147 -10 -192 -29 -71 -31 -165 -92 -160 -105 2 -5 43 -26 91 -46 48 -20 111 -51 139 -69 71 -46 152 -130 125 -130 -3 0 -26 16 -52 36 -58 44 -198 115 -284 144 -63 21 -229 45 -252 37 -7 -2 20 -19 58 -37 140 -65 235 -150 235 -211 0 -16 -20 -46 -55 -84 -60 -65 -255 -318 -255 -331 0 -4 -6 -15 -14 -23 -28 -31 -162 -291 -201 -391 -10 -25 -23 -58 -30 -75 -47 -111 -125 -400 -150 -557 -9 -56 -20 -125 -26 -151 -5 -27 -9 -70 -9 -95 0 -26 -4 -53 -8 -60 -5 -7 -64 -26 -133 -42 -332 -81 -682 -222 -936 -376 -107 -65 -233 -151 -233 -160 0 -4 82 35 170 81 90 47 319 134 525 198 124 39 455 118 548 131 l47 7 1 -38 2 -38 10 37 c12 44 11 43 130 62 395 62 936 74 1401 31 213 -20 570 -80 736 -124 214 -57 231 -62 400 -118 171 -58 275 -100 424 -174 66 -32 121 -57 123 -55 6 6 -135 101 -252 169 -227 134 -473 239 -745 320 -112 34 -342 89 -427 102 -77 12 -68 20 92 81 118 45 404 189 517 261 185 118 190 130 23 54 -82 -38 -171 -79 -198 -90 -91 -40 -403 -140 -547 -176 -80 -20 -163 -40 -184 -46 -63 -17 -167 -20 -381 -12 l-200 8 -54 83 c-54 82 -55 82 -98 82 -24 0 -43 -3 -43 -6 0 -4 21 -40 46 -81 26 -40 45 -75 43 -77 -2 -2 -62 -7 -134 -11 l-130 -7 -67 110 c-38 61 -68 114 -68 120 0 5 44 12 98 15 448 27 774 263 908 655 48 139 67 270 67 447 1 190 -22 333 -75 485 -43 120 -44 131 -33 272 6 67 4 103 -10 157 -9 39 -20 73 -24 76 -4 2 -13 -23 -19 -57z m-123 -324 c12 -15 21 -32 21 -39 0 -26 -41 -65 -68 -65 -33 0 -45 8 -61 37 -15 30 -14 36 10 67 13 17 30 26 49 26 19 0 36 -9 49 -26z m-580 -1041 c-8 -10 -18 -23 -24 -29 -61 -69 -144 -187 -182 -259 -41 -80 -98 -235 -114 -311 l-12 -61 81 -123 c45 -68 82 -130 82 -137 0 -8 -14 -13 -39 -13 -22 0 -61 -4 -88 -9 -117 -24 -253 -44 -258 -39 -8 8 13 89 58 223 116 348 267 595 455 748 38 31 62 36 41 10z"/>
<path d="M1230 3209 c0 -5 26 -49 57 -97 32 -48 62 -95 68 -104 18 -30 164 -259 271 -423 140 -217 364 -573 371 -591 3 -8 9 -14 13 -14 6 0 41 92 79 211 7 22 1 43 -33 110 -60 119 -192 372 -271 519 -36 69 -68 132 -71 140 -6 17 -484 262 -484 249z"/>
<path d="M4432 2300 c-81 -77 -120 -184 -107 -288 7 -59 35 -134 53 -146 6 -3 33 16 60 43 91 91 124 231 83 354 -12 36 -28 68 -36 71 -8 3 -31 -12 -53 -34z"/>
<path d="M4860 1844 c-86 -14 -200 -72 -200 -101 0 -19 57 -61 115 -82 116 -44 272 -15 345 64 l25 26 -25 20 c-63 51 -186 85 -260 73z"/>
<path d="M4655 1380 c-85 -12 -195 -69 -195 -100 0 -20 51 -53 120 -79 101 -38 212 -24 312 40 67 43 60 63 -36 108 -69 32 -128 41 -201 31z"/>
<path d="M5056 639 c-18 -93 3 -191 57 -267 38 -53 118 -112 162 -119 l33 -5 7 53 c12 101 -30 212 -107 285 -50 47 -83 68 -119 77 -24 6 -27 3 -33 -24z"/>
</g>
</svg>